<?xml version="1.0" encoding="UTF-8" standalone="no"?>
<svg
   id="Layer_1"
   data-name="Layer 1"
   viewBox="0 0 79.37 90.71"
   version="1.1"
   xmlns="http://www.w3.org/2000/svg"
   xmlns:svg="http://www.w3.org/2000/svg"
   xmlns:rdf="http://www.w3.org/1999/02/22-rdf-syntax-ns#"
   xmlns:cc="http://creativecommons.org/ns#"
   xmlns:dc="http://purl.org/dc/elements/1.1/">
  <defs
     id="defs1">
    <style
       id="style1">.cls-1{fill:#1b1b1f;}</style>
  </defs>
  <title
     id="title1">BASH_logo-transparent-bg-bw</title>
  <g
     id="layer1"
     style="display:inline;fill:#000000" />
  <rect
     style="fill:#1a1a1a;stroke-width:0.562057"
     id="rect1"
     width="27.344238"
     height="27.65148"
     x="39.326557"
     y="48.441303" />
  <path
     class="cls-1"
     d="m 73.85,18.52 -28.64,-17 a 10.79,10.79 0 0 0 -11,0 l -28.64,17 A 11.42,11.42 0 0 0 0,28.36 v 34 a 11.42,11.42 0 0 0 5.52,9.84 l 28.64,17 a 10.79,10.79 0 0 0 11,0 l 28.64,-17 a 11.42,11.42 0 0 0 5.52,-9.84 v -34 A 11.42,11.42 0 0 0 73.85,18.52 Z M 51.67,71.61 v 2.44 a 0.9,0.9 0 0 1 -0.42,0.75 l -1.45,0.83 c -0.23,0.12 -0.42,0 -0.42,-0.32 v -2.4 a 4.71,4.71 0 0 1 -3.3,0.32 0.44,0.44 0 0 1 -0.16,-0.54 l 0.52,-2.21 a 0.92,0.92 0 0 1 0.29,-0.48 0.58,0.58 0 0 1 0.14,-0.1 0.29,0.29 0 0 1 0.23,0 4,4 0 0 0 3,-0.38 4,4 0 0 0 2.24,-3.43 c 0,-1.24 -0.68,-1.76 -2.32,-1.77 -2.08,0 -4,-0.4 -4.05,-3.47 a 8.89,8.89 0 0 1 3.36,-6.8 v -2.47 a 0.89,0.89 0 0 1 0.42,-0.76 l 1.4,-0.89 c 0.23,-0.12 0.42,0 0.42,0.33 v 2.47 a 4.56,4.56 0 0 1 2.74,-0.33 0.44,0.44 0 0 1 0.18,0.57 L 54,55.16 a 0.94,0.94 0 0 1 -0.25,0.44 0.58,0.58 0 0 1 -0.14,0.11 0.33,0.33 0 0 1 -0.21,0 3.63,3.63 0 0 0 -2.64,0.43 3.32,3.32 0 0 0 -2,2.94 c 0,1.12 0.59,1.46 2.57,1.5 2.65,0 3.79,1.2 3.82,3.86 a 9.48,9.48 0 0 1 -3.48,7.17 z m 15,-4.11 a 0.57,0.57 0 0 1 -0.22,0.55 l -7.24,4.4 a 0.21,0.21 0 0 1 -0.34,-0.21 v -1.87 a 0.52,0.52 0 0 1 0.33,-0.46 l 7.13,-4.27 a 0.21,0.21 0 0 1 0.34,0.21 z m 5,-41.81 -27.1,16.74 c -3.38,2 -5.87,4.19 -5.87,8.26 v 33.38 c 0,2.44 1,4 2.5,4.48 A 8.77,8.77 0 0 1 39.7,88.7 8.87,8.87 0 0 1 35.18,87.45 L 6.54,70.45 A 9.42,9.42 0 0 1 2,62.36 v -34 a 9.42,9.42 0 0 1 4.54,-8.1 l 28.64,-17 a 8.83,8.83 0 0 1 9,0 l 28.64,17 a 9.36,9.36 0 0 1 4.4,6.55 c -0.93,-2.02 -3.07,-2.58 -5.56,-1.12 z"
     id="path1"
     style="display:inline;fill:#f2f2f2" />
  <metadata
     id="metadata2">
    <rdf:RDF>
      <cc:Work
         rdf:about="">
        <dc:title>BASH_logo-transparent-bg-bw</dc:title>
      </cc:Work>
    </rdf:RDF>
  </metadata>
</svg>
